<svg width="90" height="40" viewBox="0 0 90 40" fill="none" xmlns="http://www.w3.org/2000/svg">
<path d="M46.0312 2.58725C44.5794 1.13546 42.6672 0.288978 40.4638 0C41.7052 0.4464 42.8061 1.12093 43.7231 2.03763C49.2358 7.55038 46.0366 19.6963 36.5927 29.2545L36.5174 30.8686L36.46 32.0925C37.2264 31.4298 37.9815 30.7289 38.7205 29.9901C48.3063 20.4041 51.5797 8.13547 46.0312 2.58725Z" fill="#700AB6"/>
<path d="M35.2049 32.0861L34.4176 31.2988C27.7768 37.1402 20.2217 40.0782 14.5771 39.3382C20.0993 41.324 28.4121 38.7666 35.7829 32.6638L35.2049 32.0861Z" fill="#700AB6"/>
<path d="M9.78927 19.3463C9.78927 18.5171 9.48108 17.827 8.86493 17.2744C8.24855 16.7221 7.35402 16.3841 6.18161 16.2612L9.26355 13.1612V11.8265H0.616635V13.4992H6.38116L3.49878 16.3996V17.7652H4.65887C5.58961 17.7652 6.28139 17.9061 6.73444 18.1872C7.18798 18.4688 7.41463 18.8605 7.41463 19.3611C7.41463 19.8629 7.17566 20.2588 6.69822 20.5505C6.22078 20.8422 5.56522 20.988 4.7313 20.988C4.03041 20.988 3.35071 20.8939 2.69195 20.7045C2.03319 20.515 1.47421 20.2568 1.01549 19.9292L0 21.4795C0.591751 21.8685 1.30816 22.1725 2.14849 22.3928C2.98832 22.6125 3.86116 22.7226 4.768 22.7226C5.85518 22.7226 6.77705 22.5714 7.53214 22.2698C8.28723 21.968 8.85237 21.5616 9.22708 21.0496C9.60204 20.5377 9.78927 19.9698 9.78927 19.3463Z" fill="#0A0013"/>
<path d="M16.8229 22.7224C17.693 22.7224 18.4784 22.5788 19.1793 22.2925C19.8802 22.0063 20.4357 21.5995 20.8471 21.0728C21.2576 20.5459 21.4635 19.9344 21.4635 19.2389C21.4635 18.5844 21.2763 18.0059 20.9016 17.5046C20.5269 17.0037 20.007 16.6174 19.3429 16.3459C18.6777 16.075 17.9288 15.9395 17.0948 15.9395C16.3696 15.9395 15.717 16.0343 15.137 16.223C14.5569 16.4125 14.0797 16.6913 13.705 17.0596V17.0441C13.705 15.8473 14.0494 14.9319 14.7384 14.297C15.427 13.6631 16.3819 13.3461 17.6021 13.3461C18.5814 13.3461 19.385 13.52 20.0135 13.8676L20.8836 12.3636C20.4606 12.1384 19.962 11.9672 19.3882 11.8494C18.8139 11.7319 18.201 11.6728 17.5479 11.6728C16.3154 11.6728 15.2307 11.8953 14.294 12.3407C13.3574 12.7856 12.6294 13.4355 12.1093 14.2896C11.59 15.1437 11.3301 16.1745 11.3301 17.3821C11.3301 19.1005 11.8102 20.4205 12.7713 21.3411C13.7318 22.2622 15.0826 22.7224 16.8229 22.7224ZM14.7835 18.0264C15.261 17.6783 15.8803 17.5043 16.6413 17.5043C17.4146 17.5043 18.0308 17.6682 18.4907 17.9956C18.9494 18.323 19.1793 18.7684 19.1793 19.3308C19.1793 19.8832 18.9494 20.3261 18.4907 20.6582C18.031 20.9908 17.4329 21.1568 16.6957 21.1568C15.8741 21.1568 15.2307 20.9861 14.7655 20.6427C14.2999 20.3 14.0674 19.8679 14.0674 19.3463C14.0671 18.814 14.3056 18.374 14.7835 18.0264Z" fill="#0A0013"/>
<path d="M28.8318 20.5505C28.3543 20.8422 27.6988 20.988 26.8648 20.988C26.164 20.988 25.4843 20.8939 24.8255 20.7045C24.1667 20.515 23.6021 20.2568 23.1306 19.9292L22.1338 21.4795C22.714 21.8685 23.4264 22.1725 24.2727 22.3928C25.1184 22.6125 25.9947 22.7226 26.9011 22.7226C28.0005 22.7226 28.9254 22.5689 29.6748 22.2622C30.4242 21.9552 30.9862 21.5406 31.3609 21.0191C31.7351 20.497 31.9228 19.9142 31.9228 19.2692C31.9228 18.2564 31.4934 17.456 30.6353 16.8679C29.7775 16.2794 28.4538 15.985 26.6658 15.985H25.4507L25.7227 13.4992H31.1793V11.8265H23.7287L23.0764 17.673H26.1401C27.3844 17.673 28.2634 17.814 28.7776 18.0951C29.2912 18.3766 29.5477 18.7932 29.5477 19.3463C29.5477 19.8577 29.3092 20.2588 28.8318 20.5505Z" fill="#0A0013"/>
<path d="M52.8602 13.9058C53.5488 13.5833 54.3285 13.4227 55.1986 13.4227C56.5398 13.4227 57.6696 13.842 58.588 14.6808L60.1113 13.4685C59.519 12.8851 58.7935 12.4402 57.9357 12.1332C57.0779 11.8268 56.1289 11.6728 55.0895 11.6728C53.8084 11.6728 52.6515 11.9108 51.6181 12.3865C50.5851 12.8622 49.7719 13.52 49.1801 14.3588C48.5879 15.1974 48.292 16.1444 48.292 17.1976C48.292 18.2518 48.5847 19.198 49.1712 20.0369C49.7571 20.8762 50.5671 21.5335 51.6001 22.0092C52.6336 22.4849 53.7905 22.7229 55.0715 22.7229C56.1109 22.7229 57.0623 22.5692 57.9268 22.2625C58.7905 21.9555 59.519 21.5106 60.1115 20.9272L58.5883 19.6994C57.6696 20.5488 56.5398 20.9728 55.1989 20.9728C54.3287 20.9728 53.549 20.8114 52.8605 20.4897C52.1714 20.1672 51.6333 19.7201 51.2468 19.147C50.86 18.5738 50.6666 17.9246 50.6666 17.1976C50.6666 16.4716 50.8598 15.8219 51.2468 15.2487C51.6329 14.6759 52.1709 14.2283 52.8602 13.9058Z" fill="#0A0013"/>
<path d="M72.302 17.7349C72.7671 17.1515 73.0002 16.456 73.0002 15.6477C73.0002 14.8601 72.7824 14.1799 72.3471 13.6069C71.9122 13.0336 71.287 12.5941 70.471 12.2872C69.6551 11.9802 68.6973 11.8267 67.5978 11.8267H62.377V22.5689H64.7334V19.4382H67.5975C67.8151 19.4382 67.9782 19.4328 68.087 19.4227L70.6792 22.5684H73.2167L70.2988 19.0391C71.169 18.7528 71.8368 18.318 72.302 17.7349ZM69.8278 17.236C69.2957 17.6095 68.5159 17.796 67.4894 17.796H64.7336V13.5145H67.4894C68.5159 13.5145 69.2957 13.6985 69.8278 14.0668C70.3594 14.4352 70.625 14.9619 70.625 15.6475C70.625 16.3331 70.3594 16.8625 69.8278 17.236Z" fill="#0A0013"/>
<path d="M89.4957 11.8265H87.5558L82.607 18.9472L77.5677 11.8265H75.6279V22.5687H77.8759V15.5401L82.0451 21.3408H83.0967L87.2659 15.4479L87.2839 22.5687H89.5139L89.4957 11.8265Z" fill="#0A0013"/>
<path d="M23.9329 3.93069L23.4599 3.24089L22.6848 2.1106L22.2367 4.01372L21.8955 5.46452L22.7368 5.58104L25.3085 5.93703L24.3399 4.52417L24.2682 4.41947C29.6422 1.69648 34.8899 1.47401 37.7743 4.35837C41.464 8.04832 40.0747 15.6044 34.8618 22.3467L35.2057 22.3307L36.9046 22.2511L36.7664 25.2103C44.2522 16.9926 46.6269 7.01534 41.9882 2.37642C38.2219 -1.3894 30.9381 -0.528629 23.9329 3.93069Z" fill="#0A0013"/>
<path d="M20.8329 6.28739L20.8706 6.12726C19.8517 6.9464 18.831 7.78229 17.8619 8.75146C17.6603 8.95298 17.4354 9.19786 17.2871 9.41663C18.5127 8.24914 19.7891 7.21715 21.0837 6.32188L20.8329 6.28739Z" fill="#0A0013"/>
<path d="M28.8979 23.8332L31.3033 26.2387C24.0747 32.9684 15.1935 35.1428 11.0912 31.0404C9.92046 29.8697 9.26195 28.3096 9.07324 26.5099C9.08507 29.0848 9.85099 31.3163 11.4489 32.9142C15.9363 37.4016 25.4196 35.3251 33.473 28.4083L33.5262 28.4616L35.4668 30.4021L35.6503 26.4914L35.7895 23.5103L34.0906 23.5898L28.8979 23.8332Z" fill="#0A0013"/>
</svg>
