<svg width="200" height="56" fill="none" xmlns="http://www.w3.org/2000/svg"><path d="M9.179 6.747l14.38 12.815a6.694 6.694 0 003.995 1.687 6.718 6.718 0 004.915-1.639l4.163-3.631a10.77 10.77 0 01-2.168.06 10.72 10.72 0 01-7.106-3.404L14.265.969a3.823 3.823 0 00-5.414.33 3.874 3.874 0 00.328 5.448z" fill="url(#paint0_linear_801_2301)"/><path d="M27.358 12.634a10.726 10.726 0 007.106 3.405 10.72 10.72 0 002.168-.06l6.468-5.641a3.871 3.871 0 00.387-5.443 3.82 3.82 0 00-5.41-.389L28.05 13.253l-.691-.619z" fill="url(#paint1_linear_801_2301)"/><path opacity=".2" d="M27.359 12.622a10.738 10.738 0 007.11 3.42c.739.055 1.464.034 2.171-.057l6.452-5.636a3.877 3.877 0 00.395-5.45 3.826 3.826 0 00-5.416-.398L28.05 13.242l-.691-.62z" fill="url(#paint2_linear_801_2301)"/><path d="M48.944 9.178L36.21 23.649a6.78 6.78 0 00-1.677 4.02 6.815 6.815 0 001.629 4.945l3.608 4.19a10.99 10.99 0 01-.06-2.182 10.843 10.843 0 013.384-7.15l11.593-13.177a3.88 3.88 0 00-.329-5.448 3.816 3.816 0 00-5.414.33z" fill="url(#paint3_linear_801_2301)"/><path opacity=".2" d="M43.107 27.473a10.859 10.859 0 00-3.399 7.154 11 11 0 00.057 2.186l5.6 6.492a3.82 3.82 0 005.417.398 3.884 3.884 0 00.395-5.45L42.49 28.166l.617-.693z" fill="url(#paint4_linear_801_2301)"/><path d="M43.094 27.47a10.848 10.848 0 00-3.384 7.151 10.92 10.92 0 00.06 2.183l5.606 6.509a3.814 3.814 0 005.409.388 3.879 3.879 0 00.386-5.443l-8.692-10.093.615-.694z" fill="url(#paint5_linear_801_2301)"/><path d="M6.705 47.343l12.734-14.471a6.78 6.78 0 001.677-4.02 6.815 6.815 0 00-1.629-4.945l-3.608-4.19c.091.71.113 1.44.06 2.182a10.842 10.842 0 01-3.384 7.15L.962 42.227a3.881 3.881 0 00.329 5.448 3.817 3.817 0 005.414-.331z" fill="url(#paint6_linear_801_2301)"/><path d="M12.555 29.052a10.848 10.848 0 003.384-7.15c.053-.744.032-1.472-.06-2.183l-5.606-6.509a3.814 3.814 0 00-5.409-.389 3.879 3.879 0 00-.386 5.443l8.692 10.093-.615.695z" fill="url(#paint7_linear_801_2301)"/><path d="M46.643 49.252l-14.38-12.815a6.693 6.693 0 00-3.994-1.687 6.718 6.718 0 00-4.915 1.639L19.19 40.02a10.72 10.72 0 012.17-.06 10.72 10.72 0 017.105 3.405L41.559 55.03a3.823 3.823 0 005.413-.33 3.875 3.875 0 00-.329-5.449z" fill="url(#paint8_linear_801_2301)"/><path d="M28.464 43.364a10.726 10.726 0 00-7.106-3.405 10.72 10.72 0 00-2.169.061l-6.468 5.64a3.871 3.871 0 00-.386 5.444 3.82 3.82 0 005.409.388l10.03-8.747.69.62z" fill="url(#paint9_linear_801_2301)"/><path d="M67.316 35.89c-.296-.296-.442-.772-.442-1.427V8.005c0-.654.146-1.13.442-1.429.296-.296.769-.445 1.42-.445.65 0 1.122.149 1.418.445.295.298.443.775.443 1.429v26.458c0 .655-.148 1.13-.443 1.428-.296.298-.769.446-1.418.446-.651 0-1.124-.148-1.42-.446zm36.358-29.313c.325.328.488.789.488 1.384v26.503c0 .596-.163 1.056-.488 1.383-.326.328-.784.49-1.374.49-.355 0-.681-.089-.976-.267-.296-.178-.592-.46-.887-.848L83.544 13.315v21.149c0 .595-.163 1.056-.487 1.382-.326.329-.784.491-1.375.491s-1.05-.163-1.374-.49c-.326-.328-.488-.788-.488-1.383V7.96c0-.595.162-1.056.488-1.384.325-.327.782-.49 1.374-.49.355 0 .672.089.953.268.281.178.584.461.91.847l16.893 21.908V7.96c0-.594.162-1.055.487-1.383.325-.327.783-.49 1.375-.49.59 0 1.048.163 1.374.49zm29.573 27.753c0 .535-.251.997-.753 1.383a1.77 1.77 0 01-1.242.49c-.531 0-.99-.252-1.374-.759l-10.863-13.519-1.907 2.008v10.53c0 .596-.163 1.057-.488 1.383-.325.329-.783.491-1.374.491-.592 0-1.05-.163-1.375-.49-.325-.328-.487-.788-.487-1.383V7.96c0-.595.162-1.056.487-1.384.326-.327.783-.49 1.375-.49.591 0 1.049.164 1.374.49.326.328.488.789.488 1.384v10.62L128.414 6.8c.443-.446.887-.67 1.33-.67.443 0 .871.208 1.286.625.443.446.665.892.665 1.338 0 .446-.207.878-.621 1.294l-9.4 9.816 11.085 13.877c.326.417.488.832.488 1.249zm7.515-.424c-1.612-1.621-2.416-4.142-2.416-7.563V16.037c0-3.42.812-5.942 2.438-7.563 1.625-1.621 4.123-2.417 7.494-2.387h5.32c3.398 0 5.904.81 7.515 2.431 1.611 1.622 2.417 4.143 2.417 7.563v10.262c0 3.42-.806 5.942-2.417 7.563-1.612 1.622-4.117 2.431-7.515 2.431h-5.32c-3.4 0-5.905-.81-7.516-2.431zm12.836-1.316c1.626 0 2.875-.194 3.747-.58a3.577 3.577 0 001.885-1.897c.383-.877.576-2.133.576-3.77V16.081c0-1.607-.193-2.856-.576-3.748a3.562 3.562 0 00-1.907-1.92c-.887-.385-2.129-.579-3.725-.579h-5.32c-1.596-.03-2.838.149-3.724.535a3.552 3.552 0 00-1.907 1.919c-.385.893-.576 2.142-.576 3.748v10.306c0 1.637.192 2.894.576 3.77a3.566 3.566 0 001.884 1.897c.872.387 2.121.58 3.747.58h5.32zm45.979-24.63v26.504c0 .596-.163 1.056-.487 1.383-.326.328-.784.49-1.375.49-.592 0-1.05-.162-1.374-.49-.326-.327-.488-.788-.488-1.383V13.805l-8.158 12.092c-.296.417-.621.721-.976.915-.354.193-.783.29-1.285.29-.355 0-.673-.097-.954-.29-.281-.193-.57-.498-.865-.915l-8.202-12.136v20.703c0 .595-.163 1.056-.488 1.382-.326.329-.783.491-1.374.491-.592 0-1.05-.163-1.375-.49-.326-.328-.487-.788-.487-1.383V7.96c0-.595.162-1.056.487-1.384.325-.327.783-.49 1.375-.49.827 0 1.507.401 2.04 1.205L185.7 22.595l10.109-15.303c.502-.804 1.255-1.205 2.261-1.205 1.004 0 1.507.624 1.507 1.874zM71.562 42.003v1.038h-3.166v6.366h-1.203v-7.404h4.37zm8.131 2.239c0 .774-.251 1.366-.755 1.778-.503.412-1.22.618-2.149.618h-.765v2.77H74.82v-7.404h2.119c.919 0 1.608.19 2.066.567.458.378.687.935.687 1.671zm-3.669 1.377h.64c.617 0 1.07-.107 1.359-.324.288-.216.433-.554.433-1.012 0-.426-.13-.743-.388-.952-.259-.21-.661-.314-1.207-.314h-.836v2.602zm12.796-3.616L86.5 47.27c-.284.645-.547 1.111-.784 1.4-.238.288-.515.5-.828.636-.314.135-.694.202-1.14.202-.39 0-.75-.05-1.082-.152v-1.089c.328.132.672.198 1.031.198.305 0 .561-.075.768-.225.206-.15.393-.421.56-.813l-2.712-5.424h1.298l1.797 3.712c.16.352.26.586.297.704h.05c.02-.087.07-.227.15-.42l1.657-3.996h1.259zm8.69 7.405h-1.208v-6.366h-3.247v6.366h-1.203v-7.404h5.657v7.404zm9.656 0h-1.208v-6.366h-3.247v6.366h-1.203v-7.404h5.657v7.404h.001zm8.564-.001l-.734-2.056h-2.813l-.72 2.056h-1.269l2.753-7.434h1.309l2.753 7.434h-1.279zm-1.051-3.1l-.69-2.015c-.05-.135-.12-.348-.209-.638a14.26 14.26 0 01-.184-.638c-.09.415-.223.87-.397 1.362l-.665 1.93h2.145zm15.747 3.101h-1.413l-3.031-3.753v3.753h-1.203v-7.404h1.203v3.585l2.98-3.585h1.319l-2.969 3.576 3.114 3.828zm9.566-3.713c0 1.205-.3 2.142-.898 2.81-.599.67-1.447 1.003-2.544 1.003-1.111 0-1.964-.331-2.559-.995-.596-.663-.893-1.606-.893-2.829 0-1.222.299-2.16.898-2.816.598-.654 1.453-.982 2.564-.982 1.094 0 1.939.332 2.536.998.597.665.896 1.602.896 2.81zm-5.617 0c0 .911.183 1.602.549 2.074.366.47.908.706 1.626.706.714 0 1.253-.233 1.617-.698.364-.466.546-1.16.546-2.082 0-.908-.18-1.597-.541-2.066-.36-.469-.898-.704-1.613-.704-.721 0-1.266.235-1.633.704-.367.468-.551 1.158-.551 2.066zm12.439 3.713l-2.134-6.184h-.04c.057.92.085 1.78.085 2.583v3.601h-1.092v-7.404h1.696l2.043 5.89h.031l2.103-5.89h1.701v7.404h-1.157v-3.662c0-.368.009-.847.028-1.438.018-.59.034-.948.048-1.074h-.04l-2.21 6.174h-1.062zm14.05 0h-1.208v-6.366h-3.246v6.366h-1.203v-7.404h5.656v7.404h.001zm8.563-.001l-.734-2.056h-2.813l-.72 2.056h-1.268l2.752-7.434h1.309l2.753 7.434h-1.279zm-1.052-3.1l-.689-2.015c-.05-.135-.12-.348-.209-.638a14.26 14.26 0 01-.184-.638c-.09.415-.223.87-.397 1.362l-.665 1.93h2.144zm11.166 3.101h-1.207v-3.337h-3.393v3.337h-1.203v-7.404h1.203v3.029h3.393v-3.03h1.207v7.405zm3.999-7.405h1.102v3.85c0 .4-.01.807-.03 1.217-.02.41-.035.688-.045.833h.045l3.76-5.9h1.404v7.404h-1.107v-3.819c0-.584.032-1.293.095-2.126h-.04l-3.774 5.945h-1.41v-7.404zm10.224-.001h1.102v3.85c0 .4-.01.807-.03 1.217-.02.41-.035.688-.045.833h.045l3.76-5.9H200v7.404h-1.107v-3.819c0-.584.032-1.293.096-2.126h-.041l-3.774 5.945h-1.41v-7.404zm3.156-.592c-.712 0-1.232-.129-1.563-.387-.33-.259-.514-.69-.551-1.295h1.072c.02.243.066.433.138.568a.633.633 0 00.312.29c.136.06.343.09.621.09.329 0 .579-.074.75-.22.172-.148.276-.39.313-.728h1.092c-.05.58-.254 1.007-.609 1.277-.356.27-.88.405-1.575.405z" fill="#414042"/><defs><linearGradient id="paint0_linear_801_2301" x1="27.052" y1="4.852" x2="15.829" y2="14.517" gradientUnits="userSpaceOnUse"><stop offset=".075" stop-color="#F3EB09"/><stop offset="1" stop-color="#FAAF40"/></linearGradient><linearGradient id="paint1_linear_801_2301" x1="43.185" y1="4.542" x2="30.098" y2="15.813" gradientUnits="userSpaceOnUse"><stop stop-color="#FFFC06"/><stop offset=".138" stop-color="#FDEA0A"/><stop offset=".529" stop-color="#F9BA15"/><stop offset=".829" stop-color="#F79D1C"/><stop offset="1" stop-color="#F6921E"/></linearGradient><linearGradient id="paint2_linear_801_2301" x1="39.702" y1="2.636" x2="33.293" y2="16.184" gradientUnits="userSpaceOnUse"><stop stop-color="#fff" stop-opacity="0"/><stop offset=".096" stop-color="#F8F8F8" stop-opacity=".096"/><stop offset=".236" stop-color="#E5E5E5" stop-opacity=".236"/><stop offset=".402" stop-color="#C6C5C5" stop-opacity=".402"/><stop offset=".589" stop-color="#9B9999" stop-opacity=".589"/><stop offset=".793" stop-color="#636061" stop-opacity=".793"/><stop offset="1" stop-color="#231F20"/></linearGradient><linearGradient id="paint3_linear_801_2301" x1="50.829" y1="27.164" x2="41.085" y2="15.991" gradientUnits="userSpaceOnUse"><stop stop-color="#C3E18C"/><stop offset=".273" stop-color="#BCD360"/><stop offset=".603" stop-color="#B4C530"/><stop offset=".856" stop-color="#B0BB13"/><stop offset="1" stop-color="#AEB808"/></linearGradient><linearGradient id="paint4_linear_801_2301" x1="53.035" y1="39.887" x2="39.51" y2="33.57" gradientUnits="userSpaceOnUse"><stop stop-color="#fff" stop-opacity="0"/><stop offset=".096" stop-color="#F8F8F8" stop-opacity=".096"/><stop offset=".236" stop-color="#E5E5E5" stop-opacity=".236"/><stop offset=".402" stop-color="#C6C5C5" stop-opacity=".402"/><stop offset=".589" stop-color="#9B9999" stop-opacity=".589"/><stop offset=".793" stop-color="#636061" stop-opacity=".793"/><stop offset="1" stop-color="#231F20"/></linearGradient><linearGradient id="paint5_linear_801_2301" x1="51.137" y1="43.399" x2="39.775" y2="30.37" gradientUnits="userSpaceOnUse"><stop stop-color="#AEC908"/><stop offset=".196" stop-color="#92BA16"/><stop offset=".561" stop-color="#62A12E"/><stop offset=".841" stop-color="#45913D"/><stop offset="1" stop-color="#3A8B42"/></linearGradient><linearGradient id="paint6_linear_801_2301" x1="4.823" y1="29.36" x2="14.567" y2="40.533" gradientUnits="userSpaceOnUse"><stop stop-color="#94E8FF"/><stop offset=".131" stop-color="#83E0FF"/><stop offset=".526" stop-color="#53CBFF"/><stop offset=".828" stop-color="#36BEFF"/><stop offset="1" stop-color="#2BB9FF"/></linearGradient><linearGradient id="paint7_linear_801_2301" x1="4.515" y1="13.127" x2="15.878" y2="26.156" gradientUnits="userSpaceOnUse"><stop stop-color="#94E8FF"/><stop offset=".346" stop-color="#56A8D7"/><stop offset=".644" stop-color="#2878B9"/><stop offset=".871" stop-color="#0C5BA6"/><stop offset="1" stop-color="#01509F"/></linearGradient><linearGradient id="paint8_linear_801_2301" x1="28.773" y1="51.15" x2="39.996" y2="41.484" gradientUnits="userSpaceOnUse"><stop stop-color="#7560AA"/><stop offset=".441" stop-color="#9188D7"/><stop offset=".797" stop-color="#A3A3F4"/><stop offset="1" stop-color="#AAADFF"/></linearGradient><linearGradient id="paint9_linear_801_2301" x1="12.639" y1="51.459" x2="25.727" y2="40.188" gradientUnits="userSpaceOnUse"><stop stop-color="#AAADFF"/><stop offset=".222" stop-color="#8993E3"/><stop offset=".575" stop-color="#596EBC"/><stop offset=".846" stop-color="#3C58A4"/><stop offset="1" stop-color="#314F9B"/></linearGradient></defs></svg>